<mxfile host="app.diagrams.net" modified="2021-09-13T14:34:37.627Z" agent="5.0 (X11; Linux x86_64) AppleWebKit/537.36 (KHTML, like Gecko) Chrome/93.0.4577.63 Safari/537.36" etag="mdw_eBkK9wGQlRfUBt3q" version="15.2.2" type="github">
  <diagram id="IUOUPkC6OjgVeGS75f2l" name="Page-1">
    <mxGraphModel dx="2240" dy="849" grid="1" gridSize="10" guides="1" tooltips="1" connect="1" arrows="1" fold="1" page="1" pageScale="1" pageWidth="827" pageHeight="1169" math="0" shadow="0">
      <root>
        <mxCell id="0" />
        <mxCell id="1" parent="0" />
        <mxCell id="7Y59wKVX5dxU6prOzK4x-1" value="usecase" style="whiteSpace=wrap;html=1;aspect=fixed;" vertex="1" parent="1">
          <mxGeometry x="-620" y="160" width="80" height="80" as="geometry" />
        </mxCell>
        <mxCell id="7Y59wKVX5dxU6prOzK4x-2" value="Storage" style="whiteSpace=wrap;html=1;aspect=fixed;" vertex="1" parent="1">
          <mxGeometry x="-120" y="160" width="80" height="80" as="geometry" />
        </mxCell>
        <mxCell id="7Y59wKVX5dxU6prOzK4x-3" value="Repository" style="whiteSpace=wrap;html=1;aspect=fixed;" vertex="1" parent="1">
          <mxGeometry x="-310" y="160" width="80" height="80" as="geometry" />
        </mxCell>
        <mxCell id="7Y59wKVX5dxU6prOzK4x-4" value="controller" style="whiteSpace=wrap;html=1;aspect=fixed;" vertex="1" parent="1">
          <mxGeometry x="-310" y="410" width="80" height="80" as="geometry" />
        </mxCell>
        <mxCell id="7Y59wKVX5dxU6prOzK4x-5" value="interactor" style="whiteSpace=wrap;html=1;aspect=fixed;" vertex="1" parent="1">
          <mxGeometry x="-620" y="410" width="80" height="80" as="geometry" />
        </mxCell>
        <mxCell id="7Y59wKVX5dxU6prOzK4x-6" value="presenter" style="whiteSpace=wrap;html=1;aspect=fixed;" vertex="1" parent="1">
          <mxGeometry x="-454" y="280" width="80" height="80" as="geometry" />
        </mxCell>
        <mxCell id="7Y59wKVX5dxU6prOzK4x-7" value="Model" style="whiteSpace=wrap;html=1;aspect=fixed;" vertex="1" parent="1">
          <mxGeometry x="-780" y="160" width="80" height="80" as="geometry" />
        </mxCell>
        <mxCell id="7Y59wKVX5dxU6prOzK4x-11" value="interface/framework" style="text;html=1;strokeColor=none;fillColor=none;align=center;verticalAlign=middle;whiteSpace=wrap;rounded=0;" vertex="1" parent="1">
          <mxGeometry x="-290" y="20" width="40" height="20" as="geometry" />
        </mxCell>
        <mxCell id="7Y59wKVX5dxU6prOzK4x-12" value="infra" style="text;html=1;strokeColor=none;fillColor=none;align=center;verticalAlign=middle;whiteSpace=wrap;rounded=0;" vertex="1" parent="1">
          <mxGeometry x="-100" y="20" width="40" height="20" as="geometry" />
        </mxCell>
        <mxCell id="7Y59wKVX5dxU6prOzK4x-13" value="" style="endArrow=none;html=1;" edge="1" parent="1">
          <mxGeometry width="50" height="50" relative="1" as="geometry">
            <mxPoint x="-480" y="555" as="sourcePoint" />
            <mxPoint x="-480" y="5" as="targetPoint" />
          </mxGeometry>
        </mxCell>
        <mxCell id="7Y59wKVX5dxU6prOzK4x-14" value="" style="endArrow=none;html=1;" edge="1" parent="1">
          <mxGeometry width="50" height="50" relative="1" as="geometry">
            <mxPoint x="-160" y="550" as="sourcePoint" />
            <mxPoint x="-160" as="targetPoint" />
          </mxGeometry>
        </mxCell>
        <mxCell id="7Y59wKVX5dxU6prOzK4x-16" value="domain" style="text;html=1;strokeColor=none;fillColor=none;align=center;verticalAlign=middle;whiteSpace=wrap;rounded=0;" vertex="1" parent="1">
          <mxGeometry x="-760" y="20" width="40" height="20" as="geometry" />
        </mxCell>
        <mxCell id="7Y59wKVX5dxU6prOzK4x-17" value="" style="endArrow=classic;html=1;entryX=1;entryY=0.5;entryDx=0;entryDy=0;exitX=-0.049;exitY=0.466;exitDx=0;exitDy=0;exitPerimeter=0;" edge="1" parent="1" source="7Y59wKVX5dxU6prOzK4x-4" target="7Y59wKVX5dxU6prOzK4x-5">
          <mxGeometry width="50" height="50" relative="1" as="geometry">
            <mxPoint x="-438" y="475" as="sourcePoint" />
            <mxPoint x="-388" y="425" as="targetPoint" />
          </mxGeometry>
        </mxCell>
        <mxCell id="7Y59wKVX5dxU6prOzK4x-18" value="" style="endArrow=classic;html=1;entryX=0.5;entryY=1;entryDx=0;entryDy=0;exitX=0.5;exitY=0;exitDx=0;exitDy=0;" edge="1" parent="1" source="7Y59wKVX5dxU6prOzK4x-5" target="7Y59wKVX5dxU6prOzK4x-1">
          <mxGeometry width="50" height="50" relative="1" as="geometry">
            <mxPoint x="-600" y="400" as="sourcePoint" />
            <mxPoint x="-200" y="240" as="targetPoint" />
          </mxGeometry>
        </mxCell>
        <mxCell id="7Y59wKVX5dxU6prOzK4x-19" value="Entity" style="whiteSpace=wrap;html=1;aspect=fixed;" vertex="1" parent="1">
          <mxGeometry x="-780" y="410" width="80" height="80" as="geometry" />
        </mxCell>
        <mxCell id="7Y59wKVX5dxU6prOzK4x-20" value="" style="endArrow=none;html=1;" edge="1" parent="1">
          <mxGeometry width="50" height="50" relative="1" as="geometry">
            <mxPoint x="-660" y="550" as="sourcePoint" />
            <mxPoint x="-660" as="targetPoint" />
          </mxGeometry>
        </mxCell>
        <mxCell id="7Y59wKVX5dxU6prOzK4x-21" value="usecase" style="text;html=1;strokeColor=none;fillColor=none;align=center;verticalAlign=middle;whiteSpace=wrap;rounded=0;" vertex="1" parent="1">
          <mxGeometry x="-600" y="20" width="40" height="20" as="geometry" />
        </mxCell>
        <mxCell id="7Y59wKVX5dxU6prOzK4x-23" value="" style="endArrow=none;html=1;" edge="1" parent="1">
          <mxGeometry width="50" height="50" relative="1" as="geometry">
            <mxPoint x="-350" y="550" as="sourcePoint" />
            <mxPoint x="-350" as="targetPoint" />
          </mxGeometry>
        </mxCell>
        <mxCell id="7Y59wKVX5dxU6prOzK4x-24" value="presentation" style="text;html=1;strokeColor=none;fillColor=none;align=center;verticalAlign=middle;whiteSpace=wrap;rounded=0;" vertex="1" parent="1">
          <mxGeometry x="-440" y="20" width="40" height="20" as="geometry" />
        </mxCell>
        <mxCell id="7Y59wKVX5dxU6prOzK4x-26" value="" style="endArrow=classic;startArrow=classic;html=1;entryX=0;entryY=0.5;entryDx=0;entryDy=0;exitX=1;exitY=0.5;exitDx=0;exitDy=0;" edge="1" parent="1" source="7Y59wKVX5dxU6prOzK4x-7" target="7Y59wKVX5dxU6prOzK4x-1">
          <mxGeometry width="50" height="50" relative="1" as="geometry">
            <mxPoint x="-330" y="370" as="sourcePoint" />
            <mxPoint x="-280" y="320" as="targetPoint" />
          </mxGeometry>
        </mxCell>
        <mxCell id="7Y59wKVX5dxU6prOzK4x-27" value="" style="endArrow=classic;html=1;entryX=0;entryY=0.5;entryDx=0;entryDy=0;" edge="1" parent="1" target="7Y59wKVX5dxU6prOzK4x-3">
          <mxGeometry width="50" height="50" relative="1" as="geometry">
            <mxPoint x="-540" y="200" as="sourcePoint" />
            <mxPoint x="-490" y="150" as="targetPoint" />
          </mxGeometry>
        </mxCell>
        <mxCell id="7Y59wKVX5dxU6prOzK4x-30" value="" style="endArrow=classic;html=1;entryX=0;entryY=0.5;entryDx=0;entryDy=0;exitX=1;exitY=0.5;exitDx=0;exitDy=0;" edge="1" parent="1" source="7Y59wKVX5dxU6prOzK4x-3" target="7Y59wKVX5dxU6prOzK4x-2">
          <mxGeometry width="50" height="50" relative="1" as="geometry">
            <mxPoint x="-330" y="370" as="sourcePoint" />
            <mxPoint x="-280" y="320" as="targetPoint" />
          </mxGeometry>
        </mxCell>
        <mxCell id="7Y59wKVX5dxU6prOzK4x-31" value="" style="endArrow=classic;html=1;entryX=0.5;entryY=0;entryDx=0;entryDy=0;" edge="1" parent="1" target="7Y59wKVX5dxU6prOzK4x-6">
          <mxGeometry width="50" height="50" relative="1" as="geometry">
            <mxPoint x="-540" y="200" as="sourcePoint" />
            <mxPoint x="-300" y="380" as="targetPoint" />
          </mxGeometry>
        </mxCell>
        <mxCell id="7Y59wKVX5dxU6prOzK4x-32" value="" style="endArrow=classic;html=1;exitX=1;exitY=0.5;exitDx=0;exitDy=0;entryX=0.5;entryY=0;entryDx=0;entryDy=0;" edge="1" parent="1" source="7Y59wKVX5dxU6prOzK4x-6" target="7Y59wKVX5dxU6prOzK4x-4">
          <mxGeometry width="50" height="50" relative="1" as="geometry">
            <mxPoint x="-330" y="370" as="sourcePoint" />
            <mxPoint x="-280" y="320" as="targetPoint" />
          </mxGeometry>
        </mxCell>
      </root>
    </mxGraphModel>
  </diagram>
</mxfile>
